# xmcd
# Track frame offsets:
# 183
# 17295
# 30403
# 43458
# 63973
# 76268
# 90095
# 102170
# 115365
# 130018
#
# Disc length: 1897 seconds
# Revision: 0
# Processed by: cddbd v1.4PL0 Copyright (c) Steve Scherf et al.
# Submitted via: VisiTrax 2.9.5.180 - For more info visit www.synapsa.com
#
DISCID=6b07670a
DTITLE=Marsha Britton - Bad news boy
DYEAR=1900
DGENRE=
TTITLE0=Marsha Britton - I know you, you're a heartache
TTITLE1=Marsha Britton - I do my crying at night
TTITLE2=Marsha Britton/ Benny Berry - Today
TTITLE3=Marsha Britton - My brothers wife
TTITLE4=Marsha Britton - The Jones's
TTITLE5=Marsha Britton - Easier said than undone
TTITLE6=Marsha Britton - Long look at love
TTITLE7=Marsha Britton - I'm not in love I'm in crazy
TTITLE8=Marsha Britton - Home grown tomatoes
TTITLE9=Marsha Britton - Bad news boy
EXTD=
EXTT0=
EXTT1=
EXTT2=
EXTT3=
EXTT4=
EXTT5=
EXTT6=
EXTT7=
EXTT8=
EXTT9=
PLAYORDER=
